<svg width="441" height="371" viewBox="0 0 441 371" fill="none" xmlns="http://www.w3.org/2000/svg">
<g filter="url(#filter0_d_553_11182)">
<path d="M32.8986 254.707C25.5465 250.691 21.8706 248.683 22.0035 246.51C22.1364 244.338 26.0562 242.37 33.8951 238.433L177.154 166.485C200.117 154.953 211.598 149.187 228.428 149.296C245.26 149.404 255.858 155.313 277.057 167.13L409.024 240.699C416.151 244.672 419.715 246.658 419.571 248.8C419.428 250.942 415.603 252.886 407.951 256.775L266.907 328.459C244.224 339.987 232.883 345.751 216.08 345.676C199.278 345.601 188.546 339.738 167.082 328.012L32.8986 254.707Z" fill="#343434" fill-opacity="0.05"/>
<path d="M32.8986 254.707C25.5465 250.691 21.8706 248.683 22.0035 246.51C22.1364 244.338 26.0562 242.37 33.8951 238.433L177.154 166.485C200.117 154.953 211.598 149.187 228.428 149.296C245.26 149.404 255.858 155.313 277.057 167.13L409.024 240.699C416.151 244.672 419.715 246.658 419.571 248.8C419.428 250.942 415.603 252.886 407.951 256.775L266.907 328.459C244.224 339.987 232.883 345.751 216.08 345.676C199.278 345.601 188.546 339.738 167.082 328.012L32.8986 254.707Z" fill="url(#paint0_linear_553_11182)"/>
<path d="M33.1383 254.268C29.4505 252.254 26.7239 250.763 24.931 249.508C24.0351 248.88 23.4042 248.333 23.0078 247.832C22.6166 247.338 22.4791 246.924 22.5025 246.541C22.5263 246.153 22.7198 245.727 23.1828 245.225C23.6481 244.72 24.3533 244.175 25.3277 243.555C27.2775 242.317 30.1893 240.854 34.1195 238.88L177.379 166.932C200.364 155.389 211.735 149.688 228.425 149.796C245.108 149.903 255.596 155.739 276.813 167.567L408.781 241.135C412.356 243.128 414.998 244.602 416.733 245.843C417.6 246.463 418.209 247.003 418.591 247.495C418.967 247.981 419.098 248.389 419.073 248.767L419.571 248.8L419.072 248.767C419.047 249.15 418.856 249.571 418.403 250.065C417.947 250.563 417.258 251.101 416.307 251.712C414.403 252.935 411.561 254.38 407.725 256.329L266.68 328.013C243.976 339.552 232.743 345.251 216.083 345.176C199.427 345.101 188.805 339.309 167.321 327.573L33.1383 254.268Z" stroke="#343434" stroke-opacity="0.1"/>
<path fill-rule="evenodd" clip-rule="evenodd" d="M71.0811 183.868C71.1907 182.08 74.4164 180.46 80.8683 177.22L184.063 125.393C202.962 115.902 212.411 111.157 226.263 111.246C240.115 111.336 248.838 116.198 266.284 125.924L361.352 178.922C367.218 182.192 370.15 183.827 370.033 185.59V236.862C370.15 235.099 367.218 233.464 361.352 230.194L266.284 177.196C248.838 167.47 240.115 162.607 226.263 162.518C212.411 162.428 202.962 167.174 184.063 176.665L80.8683 228.492C74.4164 231.732 71.1907 233.352 71.0811 235.14V183.868Z" fill="#6580E1" fill-opacity="0.6"/>
<path fill-rule="evenodd" clip-rule="evenodd" d="M370.033 185.59C369.915 187.353 366.766 188.953 360.469 192.153L258.869 243.79C240.201 253.278 230.867 258.022 217.038 257.96C203.21 257.898 194.378 253.072 176.712 243.422L80.0478 190.614C73.997 187.308 70.9714 185.655 71.0807 183.868V235.139C70.9714 236.927 73.997 238.58 80.0478 241.886L176.712 294.693C194.378 304.344 203.21 309.169 217.038 309.231C230.867 309.293 240.201 304.549 258.869 295.061L360.469 243.425C366.766 240.224 369.915 238.624 370.033 236.861V185.59Z" fill="url(#paint1_linear_553_11182)" stroke="white"/>
<path d="M80.0483 190.615C73.9974 187.309 70.9719 185.656 71.0812 183.868C71.1909 182.081 74.4166 180.461 80.8684 177.221L184.064 125.394C202.962 115.903 212.411 111.157 226.263 111.247C240.115 111.336 248.838 116.199 266.284 125.925L361.353 178.923C367.218 182.193 370.151 183.828 370.033 185.59C369.915 187.353 366.767 188.953 360.47 192.154L258.87 243.79C240.201 253.278 230.867 258.022 217.039 257.96C203.211 257.898 194.378 253.073 176.713 243.422L80.0483 190.615Z" fill="#2C67D3"/>
<path fill-rule="evenodd" clip-rule="evenodd" d="M101.549 157.918C101.629 156.617 103.978 155.437 108.675 153.078L194.519 109.965C208.279 103.055 215.158 99.5998 225.244 99.665C235.329 99.7301 241.68 103.271 254.383 110.352L333.461 154.436C337.731 156.816 339.867 158.007 339.781 159.29V179.004C339.867 177.72 337.731 176.53 333.461 174.149L254.383 130.065C241.68 122.984 235.329 119.444 225.244 119.379C215.158 119.314 208.279 122.769 194.519 129.679L108.675 172.792C103.978 175.151 101.629 176.33 101.549 177.632V157.918Z" fill="#6580E1" fill-opacity="0.6"/>
<path fill-rule="evenodd" clip-rule="evenodd" d="M339.781 159.29C339.695 160.573 337.403 161.738 332.818 164.068L248.301 207.023C234.709 213.931 227.913 217.385 217.845 217.34C207.776 217.295 201.346 213.781 188.484 206.755L108.078 162.829C103.672 160.422 101.47 159.219 101.549 157.917V177.631C101.47 178.933 103.672 180.136 108.078 182.543L188.484 226.469C201.346 233.495 207.776 237.008 217.845 237.053C227.913 237.098 234.709 233.644 248.301 226.736L332.818 183.782C337.403 181.452 339.695 180.287 339.781 179.003V159.29Z" fill="url(#paint2_linear_553_11182)" stroke="white"/>
<path d="M108.078 162.83C103.672 160.423 101.469 159.22 101.549 157.918C101.629 156.617 103.977 155.437 108.675 153.078L194.519 109.965C208.279 103.055 215.158 99.5998 225.243 99.665C235.329 99.7301 241.68 103.271 254.383 110.352L333.46 154.436C337.731 156.816 339.866 158.007 339.78 159.29C339.695 160.574 337.403 161.739 332.817 164.069L248.301 207.024C234.708 213.931 227.912 217.385 217.844 217.34C207.776 217.295 201.345 213.782 188.483 206.756L108.078 162.83Z" fill="#2C67D3"/>
<path d="M265.238 158.67C265.238 166.67 260.313 173.978 252.219 179.308C244.129 184.636 232.923 187.948 220.52 187.948C208.117 187.948 196.911 184.636 188.82 179.308C180.726 173.978 175.801 166.67 175.801 158.67C175.801 150.669 180.726 143.361 188.82 138.031C196.911 132.703 208.117 129.392 220.52 129.392C232.923 129.392 244.129 132.703 252.219 138.031C260.313 143.361 265.238 150.669 265.238 158.67Z" fill="url(#paint3_linear_553_11182)" stroke="white"/>
<path d="M258.069 154.257C258.069 160.884 253.92 166.95 247.072 171.385C240.228 175.815 230.745 178.572 220.243 178.572C209.742 178.572 200.258 175.815 193.415 171.385C186.567 166.95 182.418 160.884 182.418 154.257C182.418 147.631 186.567 141.564 193.415 137.13C200.258 132.699 209.742 129.942 220.243 129.942C230.745 129.942 240.228 132.699 247.072 137.13C253.92 141.564 258.069 147.631 258.069 154.257Z" fill="url(#paint4_linear_553_11182)" stroke="white"/>
<g filter="url(#filter1_f_553_11182)">
<path d="M258.569 175.764L171.992 175.764L220.656 75.9525L258.569 175.764Z" fill="#D9D9D9"/>
</g>
<path d="M271.356 117.862C271.356 126.38 265.853 134.24 256.642 140.021C247.444 145.794 234.676 149.398 220.52 149.398C206.364 149.398 193.596 145.794 184.398 140.021C175.187 134.24 169.684 126.38 169.684 117.862C169.684 109.345 175.187 101.485 184.398 95.7035C193.596 89.9305 206.364 86.3271 220.52 86.3271C234.676 86.3271 247.444 89.9305 256.642 95.7035C265.853 101.485 271.356 109.345 271.356 117.862Z" stroke="url(#paint5_linear_553_11182)" stroke-width="2"/>
<path fill-rule="evenodd" clip-rule="evenodd" d="M167.582 68.7843C167.582 40.4658 191.275 17.5 220.52 17.5C249.752 17.5 273.459 40.4721 273.459 68.7843C273.459 97.1153 249.746 120.069 220.52 120.069C191.275 120.069 167.582 97.1153 167.582 68.7843ZM239.98 99.2324C245.63 95.845 250.267 91.0105 253.334 85.2656C254.266 83.5214 253.556 81.3603 251.735 80.4567C249.935 79.5525 247.711 80.2418 246.765 81.9983C244.318 86.5867 240.613 90.4479 236.086 93.1777C231.571 95.8891 226.248 97.4502 220.507 97.4502C214.786 97.4502 209.469 95.8953 204.942 93.1777C200.428 90.4479 196.709 86.5739 194.244 81.986C193.317 80.2418 191.086 79.5525 189.273 80.469C187.472 81.3664 186.761 83.5276 187.707 85.2846C190.779 91.0166 195.411 95.845 201.06 99.2324C206.697 102.632 213.397 104.592 220.507 104.592C227.644 104.604 234.331 102.632 239.98 99.2324Z" fill="#FFBD1D"/>
<path d="M283.488 71.2661C283.488 82.4698 276.571 92.7418 265.122 100.26C253.682 107.772 237.818 112.452 220.244 112.452C202.671 112.452 186.807 107.772 175.366 100.26C163.917 92.7418 157.001 82.4698 157.001 71.2661C157.001 60.0624 163.917 49.7904 175.366 42.2723C186.807 34.7598 202.671 30.0806 220.244 30.0806C237.818 30.0806 253.682 34.7598 265.122 42.2723C276.571 49.7904 283.488 60.0624 283.488 71.2661Z" stroke="url(#paint6_linear_553_11182)" stroke-width="2"/>
</g>
<defs>
<filter id="filter0_d_553_11182" x="0.9" y="0.4" width="439.775" height="370.377" filterUnits="userSpaceOnUse" color-interpolation-filters="sRGB">
<feFlood flood-opacity="0" result="BackgroundImageFix"/>
<feColorMatrix in="SourceAlpha" type="matrix" values="0 0 0 0 0 0 0 0 0 0 0 0 0 0 0 0 0 0 127 0" result="hardAlpha"/>
<feOffset dy="4"/>
<feGaussianBlur stdDeviation="10.55"/>
<feComposite in2="hardAlpha" operator="out"/>
<feColorMatrix type="matrix" values="0 0 0 0 0 0 0 0 0 0 0 0 0 0 0 0 0 0 0.1 0"/>
<feBlend mode="normal" in2="BackgroundImageFix" result="effect1_dropShadow_553_11182"/>
<feBlend mode="normal" in="SourceGraphic" in2="effect1_dropShadow_553_11182" result="shape"/>
</filter>
<filter id="filter1_f_553_11182" x="128.492" y="32.4524" width="173.577" height="186.812" filterUnits="userSpaceOnUse" color-interpolation-filters="sRGB">
<feFlood flood-opacity="0" result="BackgroundImageFix"/>
<feBlend mode="normal" in="SourceGraphic" in2="BackgroundImageFix" result="shape"/>
<feGaussianBlur stdDeviation="21.75" result="effect1_foregroundBlur_553_11182"/>
</filter>
<linearGradient id="paint0_linear_553_11182" x1="439.5" y1="97.0003" x2="59" y2="258" gradientUnits="userSpaceOnUse">
<stop stop-color="#FDF6E7"/>
<stop offset="1" stop-color="#F0F4FC"/>
</linearGradient>
<linearGradient id="paint1_linear_553_11182" x1="337" y1="233.5" x2="154.084" y2="268.094" gradientUnits="userSpaceOnUse">
<stop stop-color="#D5CCFF"/>
<stop offset="1" stop-color="#568CEE"/>
</linearGradient>
<linearGradient id="paint2_linear_553_11182" x1="351.72" y1="136.845" x2="159.137" y2="258.016" gradientUnits="userSpaceOnUse">
<stop stop-color="#D5CCFF"/>
<stop offset="1" stop-color="#568CEE"/>
</linearGradient>
<linearGradient id="paint3_linear_553_11182" x1="178.054" y1="146.13" x2="262.871" y2="148.204" gradientUnits="userSpaceOnUse">
<stop stop-color="#2C67D3"/>
<stop offset="1" stop-color="#060814"/>
</linearGradient>
<linearGradient id="paint4_linear_553_11182" x1="210.869" y1="111.52" x2="227.431" y2="184.294" gradientUnits="userSpaceOnUse">
<stop stop-color="#402EEE"/>
<stop offset="1" stop-color="white"/>
</linearGradient>
<linearGradient id="paint5_linear_553_11182" x1="218.59" y1="91.9445" x2="220.52" y2="150.398" gradientUnits="userSpaceOnUse">
<stop stop-color="white" stop-opacity="0"/>
<stop offset="1"/>
</linearGradient>
<linearGradient id="paint6_linear_553_11182" x1="218.314" y1="37.9037" x2="220.244" y2="113.452" gradientUnits="userSpaceOnUse">
<stop stop-color="white" stop-opacity="0"/>
<stop offset="1"/>
</linearGradient>
</defs>
</svg>
